<?xml version="1.0" encoding="UTF-8" standalone="no"?>
<svg
   width="512"
   height="408"
   version="1.1"
   id="svg684"
   sodipodi:docname="bootstrap-logo.svg"
   inkscape:version="1.2.2 (b0a8486, 2022-12-01)"
   xmlns:inkscape="http://www.inkscape.org/namespaces/inkscape"
   xmlns:sodipodi="http://sodipodi.sourceforge.net/DTD/sodipodi-0.dtd"
   xmlns="http://www.w3.org/2000/svg"
   xmlns:svg="http://www.w3.org/2000/svg">
  <sodipodi:namedview
     id="namedview686"
     pagecolor="#ffffff"
     bordercolor="#000000"
     borderopacity="0.25"
     inkscape:showpageshadow="2"
     inkscape:pageopacity="0.0"
     inkscape:pagecheckerboard="0"
     inkscape:deskcolor="#d1d1d1"
     showgrid="false"
     inkscape:zoom="0.28921569"
     inkscape:cx="812.54237"
     inkscape:cy="394.16949"
     inkscape:window-width="1463"
     inkscape:window-height="802"
     inkscape:window-x="179"
     inkscape:window-y="134"
     inkscape:window-maximized="0"
     inkscape:current-layer="svg684" />
  <defs
     id="defs678">
    <linearGradient
       id="bs-logo-a"
       x1="76.079"
       x2="523.48"
       y1="10.798"
       y2="365.945"
       gradientUnits="userSpaceOnUse">
      <stop
         stop-color="#9013fe"
         id="stop653" />
      <stop
         offset="1"
         stop-color="#6610f2"
         id="stop655" />
    </linearGradient>
    <linearGradient
       id="bs-logo-b"
       x1="193.508"
       x2="293.514"
       y1="109.74"
       y2="278.872"
       gradientUnits="userSpaceOnUse">
      <stop
         stop-color="#fff"
         id="stop658" />
      <stop
         offset="1"
         stop-color="#f1e5fc"
         id="stop660" />
    </linearGradient>
    <filter
       id="bs-logo-c"
       width="197"
       height="249"
       x="161.901"
       y="83.457"
       color-interpolation-filters="sRGB"
       filterUnits="userSpaceOnUse">
      <feFlood
         flood-opacity="0"
         result="BackgroundImageFix"
         id="feFlood663" />
      <feColorMatrix
         in="SourceAlpha"
         values="0 0 0 0 0 0 0 0 0 0 0 0 0 0 0 0 0 0 127 0"
         id="feColorMatrix665" />
      <feOffset
         dy="4"
         id="feOffset667" />
      <feGaussianBlur
         stdDeviation="8"
         id="feGaussianBlur669" />
      <feColorMatrix
         values="0 0 0 0 0 0 0 0 0 0 0 0 0 0 0 0 0 0 0.15 0"
         id="feColorMatrix671" />
      <feBlend
         in2="BackgroundImageFix"
         result="effect1_dropShadow"
         id="feBlend673" />
      <feBlend
         in="SourceGraphic"
         in2="effect1_dropShadow"
         result="shape"
         id="feBlend675" />
    </filter>
  </defs>
  <path
     fill="url(#bs-logo-a)"
     d="M56.481 53.32C55.515 25.58 77.128 0 106.342 0h299.353c29.214 0 50.827 25.58 49.861 53.32-.928 26.647.277 61.165 8.964 89.31 8.715 28.232 23.411 46.077 47.48 48.37v26c-24.069 2.293-38.765 20.138-47.48 48.37-8.687 28.145-9.892 62.663-8.964 89.311.966 27.739-20.647 53.319-49.861 53.319H106.342c-29.214 0-50.827-25.58-49.86-53.319.927-26.648-.278-61.166-8.966-89.311C38.802 237.138 24.07 219.293 0 217v-26c24.069-2.293 38.802-20.138 47.516-48.37 8.688-28.145 9.893-62.663 8.965-89.31z"
     id="path680" />
  <path
     id="path2354-2"
     d="m 217.19036,74.664872 -5.25,31.499998 c -8.74998,2.333 -16.33108,5.83302 -23.91406,9.91602 l -25.66797,-18.083988 -36.75,36.167968 18.66797,25.66602 c -4.083,7.58398 -7.58397,15.75 -9.91797,24.5 l -31.5,4.66601 v 51.33399 l 31.5,5.25 c 2.333,8.74998 5.83397,16.33303 9.91797,23.91601 l -18.66797,26.25 36.16797,36.16797 26.25,-18.66797 c 7.58298,4.083 15.75002,7.58397 24.5,9.91797 l 5.25,30.91602 h 6.11523 23.41016 44.9707 V 250.53206 h 85.1836 v -58.61133 h -85.1836 V 133.30745 H 395.03997 V 74.696122 H 247.30169 v -0.0312 z m 6.70117,89.902338 v 100.2793 c -20.30971,-7.63278 -34.70117,-27.12759 -34.70117,-50.18164 0,-22.96572 14.62454,-42.40273 34.70117,-50.09766 z"
     style="fill:#ffffff;fill-opacity:1" />
</svg>
