<?xml version="1.0" encoding="UTF-8" standalone="no"?>
<!-- Generator: Adobe Illustrator 24.3.0, SVG Export Plug-In . SVG Version: 6.00 Build 0)  -->

<svg
   version="1.1"
   id="Calque_1"
   x="0px"
   y="0px"
   viewBox="0 0 351.5 141.73"
   style="enable-background:new 0 0 351.5 141.73;"
   xml:space="preserve"
   sodipodi:docname="logo_fabtrack.svg"
   inkscape:version="1.2.2 (b0a8486, 2022-12-01)"
   xmlns:inkscape="http://www.inkscape.org/namespaces/inkscape"
   xmlns:sodipodi="http://sodipodi.sourceforge.net/DTD/sodipodi-0.dtd"
   xmlns="http://www.w3.org/2000/svg"
   xmlns:svg="http://www.w3.org/2000/svg"><defs
   id="defs255" /><sodipodi:namedview
   id="namedview253"
   pagecolor="#ffffff"
   bordercolor="#000000"
   borderopacity="0.25"
   inkscape:showpageshadow="2"
   inkscape:pageopacity="0.0"
   inkscape:pagecheckerboard="0"
   inkscape:deskcolor="#d1d1d1"
   showgrid="false"
   inkscape:zoom="1.665138"
   inkscape:cx="176.26167"
   inkscape:cy="116.50686"
   inkscape:window-width="1463"
   inkscape:window-height="986"
   inkscape:window-x="0"
   inkscape:window-y="25"
   inkscape:window-maximized="0"
   inkscape:current-layer="Calque_1" />
<style
   type="text/css"
   id="style182">
	.st0{fill:#1D2769;}
	.st1{fill:#E6332A;}
</style>
<g
   id="g198">
	<path
   class="st0"
   d="M40.37,44.35h4.74v-10.4c0-1.31-1.06-2.37-2.37-2.37c-1.31,0-2.37,1.06-2.37,2.37V44.35z"
   id="path184" />
	<path
   class="st0"
   d="M30.38,44.35h4.74v-10.4c0-1.31-1.06-2.37-2.37-2.37c-1.31,0-2.37,1.06-2.37,2.37V44.35z"
   id="path186" />
	<path
   class="st0"
   d="M50.36,44.35h4.74v-10.4c0-1.31-1.06-2.37-2.37-2.37c-1.31,0-2.37,1.06-2.37,2.37V44.35z"
   id="path188" />
	<path
   class="st0"
   d="M43.93,6.05c3.16,0.56,4.34,3.33,4.34,5.27v4.04h2.89v2.29C58.73,21.2,64.1,29.13,64.1,37.26   c0,0.05,0,0.1,0,0.16v6.97h17.49v-7.12C81.22,14.3,64.88,0.29,43.31,0.01L43.93,6.05z"
   id="path190" />
	<path
   class="st0"
   d="M40.62,11.19v4.17h4.26v-4.17c0-1.18-0.95-2.13-2.13-2.13C41.58,9.06,40.62,10.01,40.62,11.19"
   id="path192" />
	<path
   class="st0"
   d="M45.96,55.56c-18.06-4.61-24.81-8.55-24.81-19.99c0-8.21,5.48-15.28,13.17-18.3v-1.91h2.91v-4.04   c0-1.96,1.22-4.78,4.47-5.29L42.29,0C20.55,0.17,2.05,15.27,2.94,35.57c0.99,22.72,25.9,29.09,39.33,31.94   c10.56,2.24,35.97,8.19,42.27,26.09C84.53,93.6,86.89,63.98,45.96,55.56"
   id="path194" />
	<path
   class="st0"
   d="M39.96,87.11c18.21,5.55,22.87,12.3,22.87,21.89c0,14.62-11.32,20.62-25.53,20.62   c-13.61,0-25.31-6.35-33.09-14.57c-0.04-0.04-2.9,6-2.9,6c5.73,10.82,21.82,20.67,39.78,20.67h0.02c0.01,0,0.01,0,0.02,0v0   c23,0.19,42.57-10.58,42.57-32.27c0-23.29-25.38-32.4-39.46-35.53C33.15,71.46,5.19,64.1,0.22,48.48   C0.22,48.48-5.34,75.56,39.96,87.11"
   id="path196" />
</g>

<g
   id="g250"
   transform="translate(0,-6)">
	<path
   class="st1"
   d="m 109.78,109.75 c 0,0 1.54,1.5 3.54,1.5 1.08,0 2.06,-0.56 2.06,-1.72 0,-2.54 -6.7,-2.1 -6.7,-6.46 0,-2.36 2.04,-4.12 4.76,-4.12 2.8,0 4.24,1.52 4.24,1.52 l -1.12,2.1 c 0,0 -1.36,-1.24 -3.14,-1.24 -1.2,0 -2.14,0.7 -2.14,1.7 0,2.52 6.68,1.9 6.68,6.44 0,2.26 -1.72,4.16 -4.68,4.16 -3.16,0 -4.9,-1.94 -4.9,-1.94 z"
   id="path214" />
	<path
   class="st1"
   d="m 126.88,98.94 c 4.18,0 7.34,3.18 7.34,7.24 0,4.18 -3.16,7.44 -7.34,7.44 -4.18,0 -7.34,-3.26 -7.34,-7.44 0,-4.06 3.16,-7.24 7.34,-7.24 z m 0,12.33 c 2.6,0 4.68,-2.16 4.68,-5.08 0,-2.8 -2.08,-4.88 -4.68,-4.88 -2.6,0 -4.68,2.08 -4.68,4.88 0,2.91 2.08,5.08 4.68,5.08 z"
   id="path216" />
	<path
   class="st1"
   d="m 136.82,99.18 h 4.58 c 1.54,0 2.24,0.12 2.86,0.4 1.42,0.64 2.32,2 2.32,3.88 0,1.7 -0.9,3.28 -2.4,3.88 v 0.04 c 0,0 0.2,0.2 0.48,0.7 l 2.92,5.3 h -2.88 l -2.82,-5.3 h -2.48 v 5.3 h -2.58 z m 4.9,6.66 c 1.38,0 2.24,-0.82 2.24,-2.24 0,-1.36 -0.58,-2.2 -2.6,-2.2 h -1.96 v 4.44 z"
   id="path218" />
	<path
   class="st1"
   d="m 149.96,99.18 h 5.08 c 2.56,0 4.38,1.32 4.38,3.66 0,1.32 -0.64,2.46 -1.72,3.04 v 0.04 c 1.56,0.46 2.3,1.9 2.3,3.34 0,2.84 -2.28,4.12 -4.9,4.12 h -5.14 z m 5.08,5.8 c 1.12,0 1.76,-0.8 1.76,-1.82 0,-1.02 -0.6,-1.76 -1.8,-1.76 h -2.46 v 3.58 z m 0.26,6.19 c 1.32,0 2.06,-0.86 2.06,-2.06 0,-1.18 -0.76,-2.04 -2.06,-2.04 h -2.76 v 4.1 z"
   id="path220" />
	<path
   class="st1"
   d="m 169.14,98.94 c 4.18,0 7.34,3.18 7.34,7.24 0,4.18 -3.16,7.44 -7.34,7.44 -4.18,0 -7.34,-3.26 -7.34,-7.44 0,-4.06 3.16,-7.24 7.34,-7.24 z m 0,12.33 c 2.6,0 4.68,-2.16 4.68,-5.08 0,-2.8 -2.08,-4.88 -4.68,-4.88 -2.6,0 -4.68,2.08 -4.68,4.88 0,2.91 2.08,5.08 4.68,5.08 z"
   id="path222" />
	<path
   class="st1"
   d="m 179.08,99.18 h 2.58 l 5.38,8.2 c 0.54,0.82 1.18,2.2 1.18,2.2 h 0.04 c 0,0 -0.14,-1.36 -0.14,-2.2 v -8.2 h 2.56 v 14.2 h -2.56 l -5.38,-8.18 c -0.54,-0.82 -1.18,-2.2 -1.18,-2.2 h -0.04 c 0,0 0.14,1.36 0.14,2.2 v 8.18 h -2.58 z"
   id="path224" />
	<path
   class="st1"
   d="m 194.26,99.18 h 2.58 l 5.38,8.2 c 0.54,0.82 1.18,2.2 1.18,2.2 h 0.04 c 0,0 -0.14,-1.36 -0.14,-2.2 v -8.2 h 2.56 v 14.2 h -2.56 l -5.38,-8.18 c -0.54,-0.82 -1.18,-2.2 -1.18,-2.2 h -0.04 c 0,0 0.14,1.36 0.14,2.2 v 8.18 h -2.58 z"
   id="path226" />
	<path
   class="st1"
   d="m 209.44,99.18 h 8.5 v 2.22 h -5.92 v 3.72 h 4.78 v 2.22 h -4.78 v 3.82 h 6.24 v 2.22 h -8.82 z"
   id="path228" />
	<path
   class="st1"
   d="m 225.56,99.18 h 2.58 v 9.1 c 0,1.9 1.24,2.98 3.14,2.98 1.9,0 3.16,-1.08 3.16,-3 v -9.08 h 2.58 v 9.1 c 0,3.18 -2.3,5.34 -5.72,5.34 -3.44,0 -5.74,-2.16 -5.74,-5.34 z"
   id="path230" />
	<path
   class="st1"
   d="m 240.4,99.18 h 2.58 l 5.38,8.2 c 0.54,0.82 1.18,2.2 1.18,2.2 h 0.04 c 0,0 -0.14,-1.36 -0.14,-2.2 v -8.2 H 252 v 14.2 h -2.56 l -5.38,-8.18 c -0.54,-0.82 -1.18,-2.2 -1.18,-2.2 h -0.04 c 0,0 0.14,1.36 0.14,2.2 v 8.18 h -2.58 z"
   id="path232" />
	<path
   class="st1"
   d="m 255.58,99.18 h 2.58 v 14.2 h -2.58 z"
   id="path234" />
	<path
   class="st1"
   d="m 259.92,99.18 h 2.78 l 3.12,9.26 c 0.28,0.82 0.52,2.08 0.54,2.08 h 0.04 c 0.02,0 0.26,-1.26 0.54,-2.08 l 3.14,-9.26 h 2.76 l -5.18,14.2 h -2.56 z"
   id="path236" />
	<path
   class="st1"
   d="m 274.6,99.18 h 8.5 v 2.22 h -5.92 v 3.72 h 4.78 v 2.22 h -4.78 v 3.82 h 6.24 v 2.22 h -8.82 z"
   id="path238" />
	<path
   class="st1"
   d="m 286.08,99.18 h 4.58 c 1.54,0 2.24,0.12 2.86,0.4 1.42,0.64 2.32,2 2.32,3.88 0,1.7 -0.9,3.28 -2.4,3.88 v 0.04 c 0,0 0.2,0.2 0.48,0.7 l 2.92,5.3 h -2.88 l -2.82,-5.3 h -2.48 v 5.3 h -2.58 z m 4.9,6.66 c 1.38,0 2.24,-0.82 2.24,-2.24 0,-1.36 -0.58,-2.2 -2.6,-2.2 h -1.96 v 4.44 z"
   id="path240" />
	<path
   class="st1"
   d="m 299.54,109.75 c 0,0 1.54,1.5 3.54,1.5 1.08,0 2.06,-0.56 2.06,-1.72 0,-2.54 -6.7,-2.1 -6.7,-6.46 0,-2.36 2.04,-4.12 4.76,-4.12 2.8,0 4.24,1.52 4.24,1.52 l -1.12,2.1 c 0,0 -1.36,-1.24 -3.14,-1.24 -1.2,0 -2.14,0.7 -2.14,1.7 0,2.52 6.68,1.9 6.68,6.44 0,2.26 -1.72,4.16 -4.68,4.16 -3.16,0 -4.9,-1.94 -4.9,-1.94 z"
   id="path242" />
	<path
   class="st1"
   d="m 310.28,99.18 h 2.58 v 14.2 h -2.58 z"
   id="path244" />
	<path
   class="st1"
   d="m 319.38,101.4 h -4.66 v -2.22 h 11.9 v 2.22 h -4.66 v 11.98 h -2.58 z"
   id="path246" />
	<path
   class="st1"
   d="m 328.48,99.18 h 8.5 v 2.22 h -5.92 v 3.72 h 4.78 v 2.22 h -4.78 v 3.82 h 6.24 v 2.22 h -8.82 z m 4.88,-3.66 h 2.62 l -2.1,2.72 h -2.04 z"
   id="path248" />
</g>
<text
   xml:space="preserve"
   style="font-weight:bold;font-size:53.0401px;font-family:Museo;-inkscape-font-specification:'Museo Bold';text-align:center;text-anchor:middle;fill:#1d2769;stroke-width:5.98265"
   x="221.48993"
   y="83.99437"
   id="text482"><tspan
     sodipodi:role="line"
     id="tspan480"
     x="221.48993"
     y="83.99437"
     style="font-style:normal;font-variant:normal;font-weight:bold;font-stretch:normal;font-family:'Museo Sans';-inkscape-font-specification:'Museo Sans Bold';stroke-width:5.98265">FabTrack</tspan></text></svg>
