<?xml version="1.0" encoding="utf-8"?>
<!-- Generator: Adobe Illustrator 24.3.0, SVG Export Plug-In . SVG Version: 6.00 Build 0)  -->
<svg version="1.1" id="Calque_1" xmlns="http://www.w3.org/2000/svg" xmlns:xlink="http://www.w3.org/1999/xlink" x="0px" y="0px"
	 viewBox="0 0 351.5 141.73" style="enable-background:new 0 0 351.5 141.73;" xml:space="preserve">
<style type="text/css">
	.st0{fill:#1D2769;}
	.st1{fill:#E6332A;}
</style>
<g>
	<path class="st0" d="M40.37,44.35h4.74v-10.4c0-1.31-1.06-2.37-2.37-2.37c-1.31,0-2.37,1.06-2.37,2.37V44.35z"/>
	<path class="st0" d="M30.38,44.35h4.74v-10.4c0-1.31-1.06-2.37-2.37-2.37c-1.31,0-2.37,1.06-2.37,2.37V44.35z"/>
	<path class="st0" d="M50.36,44.35h4.74v-10.4c0-1.31-1.06-2.37-2.37-2.37c-1.31,0-2.37,1.06-2.37,2.37V44.35z"/>
	<path class="st0" d="M43.93,6.05c3.16,0.56,4.34,3.33,4.34,5.27v4.04h2.89v2.29C58.73,21.2,64.1,29.13,64.1,37.26
		c0,0.05,0,0.1,0,0.16v6.97h17.49v-7.12C81.22,14.3,64.88,0.29,43.31,0.01L43.93,6.05z"/>
	<path class="st0" d="M40.62,11.19v4.17h4.26v-4.17c0-1.18-0.95-2.13-2.13-2.13C41.58,9.06,40.62,10.01,40.62,11.19"/>
	<path class="st0" d="M45.96,55.56c-18.06-4.61-24.81-8.55-24.81-19.99c0-8.21,5.48-15.28,13.17-18.3v-1.91h2.91v-4.04
		c0-1.96,1.22-4.78,4.47-5.29L42.29,0C20.55,0.17,2.05,15.27,2.94,35.57c0.99,22.72,25.9,29.09,39.33,31.94
		c10.56,2.24,35.97,8.19,42.27,26.09C84.53,93.6,86.89,63.98,45.96,55.56"/>
	<path class="st0" d="M39.96,87.11c18.21,5.55,22.87,12.3,22.87,21.89c0,14.62-11.32,20.62-25.53,20.62
		c-13.61,0-25.31-6.35-33.09-14.57c-0.04-0.04-2.9,6-2.9,6c5.73,10.82,21.82,20.67,39.78,20.67h0.02c0.01,0,0.01,0,0.02,0v0
		c23,0.19,42.57-10.58,42.57-32.27c0-23.29-25.38-32.4-39.46-35.53C33.15,71.46,5.19,64.1,0.22,48.48
		C0.22,48.48-5.34,75.56,39.96,87.11"/>
</g>
<g>
	<path class="st0" d="M108.38,27.84h35.04v12h-21.04v12h17.44v12h-17.44v21.2h-14V27.84z"/>
	<path class="st0" d="M169.02,59.36h0.56v-0.72c0-3.44-2.64-4.56-6.08-4.56c-5.2,0-11.12,3.92-11.12,3.92l-4.8-9.76
		c0,0,7.12-5.36,17.28-5.36c11.6,0,18.56,6.32,18.56,16.8v25.36h-12.64v-2.48c0-1.36,0.16-2.56,0.16-2.56h-0.16c0,0-3.04,6-11.68,6
		c-7.68,0-14-5.12-14-13.28C145.1,60.72,162.62,59.36,169.02,59.36z M162.94,75.44c3.6,0,6.8-3.92,6.8-7.28v-0.88h-1.28
		c-4.4,0-9.44,1.28-9.44,4.72C159.02,73.92,160.22,75.44,162.94,75.44z"/>
	<path class="st0" d="M191.02,27.84h13.84v15.92c0,2.08-0.16,3.52-0.16,3.52h0.16c0,0,3.84-4.4,11.12-4.4
		c11.2,0,18.56,8.8,18.56,21.6c0,13.04-8.24,21.52-19.2,21.52c-7.6,0-11.28-4.64-11.28-4.64h-0.16c0,0,0.08,1.04,0.08,2.32v1.36
		h-12.96V27.84z M212.54,74.56c4.32,0,8.08-3.52,8.08-9.84c0-6.16-3.28-10.16-8.08-10.16c-4.16,0-8.08,3.04-8.08,10.16
		C204.46,69.68,207.1,74.56,212.54,74.56z"/>
	<path class="st0" d="M239.42,27.84h13.84V68c0,3.92,0.72,5.28,3.84,5.28c0.88,0,1.68-0.08,1.68-0.08v12c0,0-1.92,0.24-4.16,0.24
		c-7.36,0-15.2-1.76-15.2-15.6V27.84z"/>
	<path class="st0" d="M284.62,59.36h0.56v-0.72c0-3.44-2.64-4.56-6.08-4.56c-5.2,0-11.12,3.92-11.12,3.92l-4.8-9.76
		c0,0,7.12-5.36,17.28-5.36c11.6,0,18.56,6.32,18.56,16.8v25.36h-12.64v-2.48c0-1.36,0.16-2.56,0.16-2.56h-0.16c0,0-3.04,6-11.68,6
		c-7.68,0-14-5.12-14-13.28C260.7,60.72,278.22,59.36,284.62,59.36z M278.54,75.44c3.6,0,6.8-3.92,6.8-7.28v-0.88h-1.28
		c-4.4,0-9.44,1.28-9.44,4.72C274.62,73.92,275.82,75.44,278.54,75.44z"/>
	<path class="st0" d="M306.62,27.84h13.84v15.92c0,2.08-0.16,3.52-0.16,3.52h0.16c0,0,3.84-4.4,11.12-4.4
		c11.2,0,18.56,8.8,18.56,21.6c0,13.04-8.24,21.52-19.2,21.52c-7.6,0-11.28-4.64-11.28-4.64h-0.16c0,0,0.08,1.04,0.08,2.32v1.36
		h-12.96V27.84z M328.14,74.56c4.32,0,8.08-3.52,8.08-9.84c0-6.16-3.28-10.16-8.08-10.16c-4.16,0-8.08,3.04-8.08,10.16
		C320.06,69.68,322.7,74.56,328.14,74.56z"/>
</g>
<g>
	<path class="st1" d="M109.78,109.75c0,0,1.54,1.5,3.54,1.5c1.08,0,2.06-0.56,2.06-1.72c0-2.54-6.7-2.1-6.7-6.46
		c0-2.36,2.04-4.12,4.76-4.12c2.8,0,4.24,1.52,4.24,1.52l-1.12,2.1c0,0-1.36-1.24-3.14-1.24c-1.2,0-2.14,0.7-2.14,1.7
		c0,2.52,6.68,1.9,6.68,6.44c0,2.26-1.72,4.16-4.68,4.16c-3.16,0-4.9-1.94-4.9-1.94L109.78,109.75z"/>
	<path class="st1" d="M126.88,98.94c4.18,0,7.34,3.18,7.34,7.24c0,4.18-3.16,7.44-7.34,7.44c-4.18,0-7.34-3.26-7.34-7.44
		C119.54,102.12,122.7,98.94,126.88,98.94z M126.88,111.27c2.6,0,4.68-2.16,4.68-5.08c0-2.8-2.08-4.88-4.68-4.88
		s-4.68,2.08-4.68,4.88C122.2,109.1,124.28,111.27,126.88,111.27z"/>
	<path class="st1" d="M136.82,99.18h4.58c1.54,0,2.24,0.12,2.86,0.4c1.42,0.64,2.32,2,2.32,3.88c0,1.7-0.9,3.28-2.4,3.88v0.04
		c0,0,0.2,0.2,0.48,0.7l2.92,5.3h-2.88l-2.82-5.3h-2.48v5.3h-2.58V99.18z M141.72,105.84c1.38,0,2.24-0.82,2.24-2.24
		c0-1.36-0.58-2.2-2.6-2.2h-1.96v4.44H141.72z"/>
	<path class="st1" d="M149.96,99.18h5.08c2.56,0,4.38,1.32,4.38,3.66c0,1.32-0.64,2.46-1.72,3.04v0.04c1.56,0.46,2.3,1.9,2.3,3.34
		c0,2.84-2.28,4.12-4.9,4.12h-5.14V99.18z M155.04,104.98c1.12,0,1.76-0.8,1.76-1.82c0-1.02-0.6-1.76-1.8-1.76h-2.46v3.58H155.04z
		 M155.3,111.17c1.32,0,2.06-0.86,2.06-2.06c0-1.18-0.76-2.04-2.06-2.04h-2.76v4.1H155.3z"/>
	<path class="st1" d="M169.14,98.94c4.18,0,7.34,3.18,7.34,7.24c0,4.18-3.16,7.44-7.34,7.44c-4.18,0-7.34-3.26-7.34-7.44
		C161.8,102.12,164.96,98.94,169.14,98.94z M169.14,111.27c2.6,0,4.68-2.16,4.68-5.08c0-2.8-2.08-4.88-4.68-4.88
		s-4.68,2.08-4.68,4.88C164.46,109.1,166.54,111.27,169.14,111.27z"/>
	<path class="st1" d="M179.08,99.18h2.58l5.38,8.2c0.54,0.82,1.18,2.2,1.18,2.2h0.04c0,0-0.14-1.36-0.14-2.2v-8.2h2.56v14.2h-2.56
		l-5.38-8.18c-0.54-0.82-1.18-2.2-1.18-2.2h-0.04c0,0,0.14,1.36,0.14,2.2v8.18h-2.58V99.18z"/>
	<path class="st1" d="M194.26,99.18h2.58l5.38,8.2c0.54,0.82,1.18,2.2,1.18,2.2h0.04c0,0-0.14-1.36-0.14-2.2v-8.2h2.56v14.2h-2.56
		l-5.38-8.18c-0.54-0.82-1.18-2.2-1.18-2.2h-0.04c0,0,0.14,1.36,0.14,2.2v8.18h-2.58V99.18z"/>
	<path class="st1" d="M209.44,99.18h8.5v2.22h-5.92v3.72h4.78v2.22h-4.78v3.82h6.24v2.22h-8.82V99.18z"/>
	<path class="st1" d="M225.56,99.18h2.58v9.1c0,1.9,1.24,2.98,3.14,2.98s3.16-1.08,3.16-3v-9.08h2.58v9.1c0,3.18-2.3,5.34-5.72,5.34
		c-3.44,0-5.74-2.16-5.74-5.34V99.18z"/>
	<path class="st1" d="M240.4,99.18h2.58l5.38,8.2c0.54,0.82,1.18,2.2,1.18,2.2h0.04c0,0-0.14-1.36-0.14-2.2v-8.2H252v14.2h-2.56
		l-5.38-8.18c-0.54-0.82-1.18-2.2-1.18-2.2h-0.04c0,0,0.14,1.36,0.14,2.2v8.18h-2.58V99.18z"/>
	<path class="st1" d="M255.58,99.18h2.58v14.2h-2.58V99.18z"/>
	<path class="st1" d="M259.92,99.18h2.78l3.12,9.26c0.28,0.82,0.52,2.08,0.54,2.08h0.04c0.02,0,0.26-1.26,0.54-2.08l3.14-9.26h2.76
		l-5.18,14.2h-2.56L259.92,99.18z"/>
	<path class="st1" d="M274.6,99.18h8.5v2.22h-5.92v3.72h4.78v2.22h-4.78v3.82h6.24v2.22h-8.82V99.18z"/>
	<path class="st1" d="M286.08,99.18h4.58c1.54,0,2.24,0.12,2.86,0.4c1.42,0.64,2.32,2,2.32,3.88c0,1.7-0.9,3.28-2.4,3.88v0.04
		c0,0,0.2,0.2,0.48,0.7l2.92,5.3h-2.88l-2.82-5.3h-2.48v5.3h-2.58V99.18z M290.98,105.84c1.38,0,2.24-0.82,2.24-2.24
		c0-1.36-0.58-2.2-2.6-2.2h-1.96v4.44H290.98z"/>
	<path class="st1" d="M299.54,109.75c0,0,1.54,1.5,3.54,1.5c1.08,0,2.06-0.56,2.06-1.72c0-2.54-6.7-2.1-6.7-6.46
		c0-2.36,2.04-4.12,4.76-4.12c2.8,0,4.24,1.52,4.24,1.52l-1.12,2.1c0,0-1.36-1.24-3.14-1.24c-1.2,0-2.14,0.7-2.14,1.7
		c0,2.52,6.68,1.9,6.68,6.44c0,2.26-1.72,4.16-4.68,4.16c-3.16,0-4.9-1.94-4.9-1.94L299.54,109.75z"/>
	<path class="st1" d="M310.28,99.18h2.58v14.2h-2.58V99.18z"/>
	<path class="st1" d="M319.38,101.4h-4.66v-2.22h11.9v2.22h-4.66v11.98h-2.58V101.4z"/>
	<path class="st1" d="M328.48,99.18h8.5v2.22h-5.92v3.72h4.78v2.22h-4.78v3.82h6.24v2.22h-8.82V99.18z M333.36,95.52h2.62l-2.1,2.72
		h-2.04L333.36,95.52z"/>
</g>
</svg>
