<svg xmlns="http://www.w3.org/2000/svg" viewBox="0 0 160 160" width="160" height="160">
  <style>
    .fabtrack-fav-path {
      fill: #00006e;
    }
    @media (prefers-color-scheme: dark) {
      .fabtrack-fav-path {
        fill: #4c8df5;
      }
    }
  </style>
  <g transform="translate(9.95336, 25.7537)">
    <g transform="translate(-28.045831,-132.55625)" class="fabtrack-fav-path">
      <path d="m 126.23676,132.55625 31.31902,54.24631 -31.31953,54.2463 h 10.58333 l 31.31953,-54.2463 -31.31901,-54.24631 z" />
      <path d="m 59.36485,132.55625 -31.319019,54.24631 31.319019,54.2463 h 62.63804 l 31.31953,-54.2463 -31.31902,-54.24631 z m 5.488037,21.32274 h 53.104773 v 13.16198 H 80.402842 c 0,0 0.32683,12.41061 -0.605647,14.40997 -0.932479,1.99937 -3.032625,5.61965 -6.461105,8.06824 -2.82017,2.01416 -5.995113,3.42226 -8.483203,4.33101 z m 48.429603,30.38884 v 13.00954 H 80.402842 c 0,0 0.247641,14.4685 -0.456303,16.48788 -0.703945,2.01938 -3.18216,6.39285 -6.610449,8.84131 -2.82011,2.01412 -5.995133,3.42227 -8.483203,4.33101 v -30.79863 c 3.0537,-0.93256 8.06009,-2.80513 12.647289,-6.08129 2.774611,-1.98161 5.64486,-3.51244 11.057724,-4.64209 5.412858,-1.12966 24.72459,-1.14773 24.72459,-1.14773 z" />
    </g>
  </g>
</svg>